<svg width="288" height="67" viewBox="0 0 288 67" fill="none" xmlns="http://www.w3.org/2000/svg">
<path d="M11.9659 27.9091V41H10.4318L3.2983 30.7216H3.17045V41H1.58523V27.9091H3.11932L10.2784 38.2131H10.4062V27.9091H11.9659ZM17.8226 41.2301C17.2005 41.2301 16.6358 41.1129 16.1287 40.8786C15.6216 40.6399 15.2189 40.2969 14.9206 39.8494C14.6223 39.3977 14.4732 38.8523 14.4732 38.2131C14.4732 37.6506 14.584 37.1946 14.8056 36.8452C15.0272 36.4915 15.3233 36.2145 15.6941 36.0142C16.0648 35.8139 16.4739 35.6648 16.9213 35.5668C17.373 35.4645 17.8269 35.3835 18.2828 35.3239C18.8794 35.2472 19.3631 35.1896 19.7338 35.1513C20.1088 35.1087 20.3816 35.0384 20.552 34.9403C20.7267 34.8423 20.8141 34.6719 20.8141 34.429V34.3778C20.8141 33.7472 20.6415 33.2571 20.2963 32.9077C19.9554 32.5582 19.4377 32.3835 18.7431 32.3835C18.0229 32.3835 17.4583 32.5412 17.0492 32.8565C16.6401 33.1719 16.3525 33.5085 16.1863 33.8665L14.7544 33.3551C15.0101 32.7585 15.351 32.294 15.7772 31.9616C16.2076 31.625 16.6763 31.3906 17.1834 31.2585C17.6948 31.1222 18.1976 31.054 18.6919 31.054C19.0073 31.054 19.3695 31.0923 19.7786 31.169C20.1919 31.2415 20.5904 31.3928 20.9739 31.6229C21.3617 31.853 21.6834 32.2003 21.9391 32.6648C22.1948 33.1293 22.3226 33.7514 22.3226 34.5312V41H20.8141V39.6705H20.7374C20.6351 39.8835 20.4647 40.1115 20.226 40.3544C19.9874 40.5973 19.6699 40.804 19.2736 40.9744C18.8773 41.1449 18.3936 41.2301 17.8226 41.2301ZM18.0527 39.875C18.6493 39.875 19.1522 39.7578 19.5613 39.5234C19.9746 39.2891 20.2857 38.9865 20.4945 38.6158C20.7076 38.245 20.8141 37.8551 20.8141 37.446V36.0653C20.7502 36.142 20.6096 36.2124 20.3922 36.2763C20.1792 36.3359 19.932 36.3892 19.6507 36.4361C19.3738 36.4787 19.1032 36.517 18.839 36.5511C18.579 36.581 18.3681 36.6065 18.2061 36.6278C17.8141 36.679 17.4476 36.7621 17.1067 36.8771C16.7701 36.9879 16.4973 37.1562 16.2885 37.3821C16.084 37.6037 15.9817 37.9062 15.9817 38.2898C15.9817 38.8139 16.1756 39.2102 16.5634 39.4787C16.9554 39.7429 17.4519 39.875 18.0527 39.875ZM29.3459 31.1818V32.4602H24.2578V31.1818H29.3459ZM25.7408 28.8295H27.2493V38.1875C27.2493 38.6136 27.3111 38.9332 27.4347 39.1463C27.5625 39.3551 27.7244 39.4957 27.9205 39.5682C28.1207 39.6364 28.3317 39.6705 28.5533 39.6705C28.7195 39.6705 28.8558 39.6619 28.9624 39.6449C29.0689 39.6236 29.1541 39.6065 29.218 39.5938L29.5249 40.9489C29.4226 40.9872 29.2798 41.0256 29.0966 41.0639C28.9134 41.1065 28.6811 41.1278 28.3999 41.1278C27.9737 41.1278 27.5561 41.0362 27.147 40.853C26.7422 40.6697 26.4055 40.3906 26.1371 40.0156C25.8729 39.6406 25.7408 39.1676 25.7408 38.5966V28.8295ZM34.5043 41.2301C33.8821 41.2301 33.3175 41.1129 32.8104 40.8786C32.3033 40.6399 31.9006 40.2969 31.6023 39.8494C31.304 39.3977 31.1548 38.8523 31.1548 38.2131C31.1548 37.6506 31.2656 37.1946 31.4872 36.8452C31.7088 36.4915 32.005 36.2145 32.3757 36.0142C32.7464 35.8139 33.1555 35.6648 33.603 35.5668C34.0547 35.4645 34.5085 35.3835 34.9645 35.3239C35.5611 35.2472 36.0447 35.1896 36.4155 35.1513C36.7905 35.1087 37.0632 35.0384 37.2337 34.9403C37.4084 34.8423 37.4957 34.6719 37.4957 34.429V34.3778C37.4957 33.7472 37.3232 33.2571 36.978 32.9077C36.6371 32.5582 36.1193 32.3835 35.4247 32.3835C34.7045 32.3835 34.1399 32.5412 33.7308 32.8565C33.3217 33.1719 33.0341 33.5085 32.8679 33.8665L31.4361 33.3551C31.6918 32.7585 32.0327 32.294 32.4588 31.9616C32.8892 31.625 33.358 31.3906 33.8651 31.2585C34.3764 31.1222 34.8793 31.054 35.3736 31.054C35.6889 31.054 36.0511 31.0923 36.4602 31.169C36.8736 31.2415 37.272 31.3928 37.6555 31.6229C38.0433 31.853 38.3651 32.2003 38.6207 32.6648C38.8764 33.1293 39.0043 33.7514 39.0043 34.5312V41H37.4957V39.6705H37.419C37.3168 39.8835 37.1463 40.1115 36.9077 40.3544C36.669 40.5973 36.3516 40.804 35.9553 40.9744C35.5589 41.1449 35.0753 41.2301 34.5043 41.2301ZM34.7344 39.875C35.331 39.875 35.8338 39.7578 36.2429 39.5234C36.6563 39.2891 36.9673 38.9865 37.1761 38.6158C37.3892 38.245 37.4957 37.8551 37.4957 37.446V36.0653C37.4318 36.142 37.2912 36.2124 37.0739 36.2763C36.8608 36.3359 36.6136 36.3892 36.3324 36.4361C36.0554 36.4787 35.7848 36.517 35.5206 36.5511C35.2607 36.581 35.0497 36.6065 34.8878 36.6278C34.4957 36.679 34.1293 36.7621 33.7884 36.8771C33.4517 36.9879 33.179 37.1562 32.9702 37.3821C32.7656 37.6037 32.6634 37.9062 32.6634 38.2898C32.6634 38.8139 32.8572 39.2102 33.245 39.4787C33.6371 39.7429 34.1335 39.875 34.7344 39.875ZM43.2662 27.9091V41H41.7576V27.9091H43.2662ZM46.0291 41V31.1818H47.5376V41H46.0291ZM46.7962 29.5455C46.5021 29.5455 46.2486 29.4453 46.0355 29.245C45.8267 29.0447 45.7223 28.804 45.7223 28.5227C45.7223 28.2415 45.8267 28.0007 46.0355 27.8004C46.2486 27.6001 46.5021 27.5 46.7962 27.5C47.0902 27.5 47.3416 27.6001 47.5504 27.8004C47.7635 28.0007 47.87 28.2415 47.87 28.5227C47.87 28.804 47.7635 29.0447 47.5504 29.245C47.3416 29.4453 47.0902 29.5455 46.7962 29.5455ZM53.1898 41.2301C52.5676 41.2301 52.003 41.1129 51.4959 40.8786C50.9888 40.6399 50.5861 40.2969 50.2878 39.8494C49.9895 39.3977 49.8404 38.8523 49.8404 38.2131C49.8404 37.6506 49.9512 37.1946 50.1728 36.8452C50.3944 36.4915 50.6905 36.2145 51.0613 36.0142C51.432 35.8139 51.8411 35.6648 52.2885 35.5668C52.7402 35.4645 53.1941 35.3835 53.65 35.3239C54.2466 35.2472 54.7303 35.1896 55.101 35.1513C55.476 35.1087 55.7488 35.0384 55.9192 34.9403C56.0939 34.8423 56.1813 34.6719 56.1813 34.429V34.3778C56.1813 33.7472 56.0087 33.2571 55.6635 32.9077C55.3226 32.5582 54.8049 32.3835 54.1103 32.3835C53.3901 32.3835 52.8255 32.5412 52.4164 32.8565C52.0073 33.1719 51.7196 33.5085 51.5534 33.8665L50.1216 33.3551C50.3773 32.7585 50.7182 32.294 51.1444 31.9616C51.5748 31.625 52.0435 31.3906 52.5506 31.2585C53.062 31.1222 53.5648 31.054 54.0591 31.054C54.3745 31.054 54.7367 31.0923 55.1458 31.169C55.5591 31.2415 55.9576 31.3928 56.3411 31.6229C56.7289 31.853 57.0506 32.2003 57.3063 32.6648C57.562 33.1293 57.6898 33.7514 57.6898 34.5312V41H56.1813V39.6705H56.1046C56.0023 39.8835 55.8319 40.1115 55.5932 40.3544C55.3546 40.5973 55.0371 40.804 54.6408 40.9744C54.2445 41.1449 53.7608 41.2301 53.1898 41.2301ZM53.4199 39.875C54.0165 39.875 54.5194 39.7578 54.9284 39.5234C55.3418 39.2891 55.6529 38.9865 55.8617 38.6158C56.0748 38.245 56.1813 37.8551 56.1813 37.446V36.0653C56.1174 36.142 55.9767 36.2124 55.7594 36.2763C55.5463 36.3359 55.2992 36.3892 55.0179 36.4361C54.7409 36.4787 54.4703 36.517 54.2061 36.5511C53.9462 36.581 53.7353 36.6065 53.5733 36.6278C53.1813 36.679 52.8148 36.7621 52.4739 36.8771C52.1373 36.9879 51.8645 37.1562 51.6557 37.3821C51.4512 37.6037 51.3489 37.9062 51.3489 38.2898C51.3489 38.8139 51.5428 39.2102 51.9306 39.4787C52.3226 39.7429 52.8191 39.875 53.4199 39.875ZM69.75 41H65.7102V27.9091H69.929C71.1989 27.9091 72.2855 28.1712 73.1889 28.6953C74.0923 29.2152 74.7848 29.9631 75.2663 30.9389C75.7479 31.9105 75.9886 33.0739 75.9886 34.429C75.9886 35.7926 75.7457 36.9666 75.2599 37.951C74.7741 38.9311 74.0668 39.6854 73.1378 40.2138C72.2088 40.7379 71.0795 41 69.75 41ZM67.2955 39.5938H69.6477C70.7301 39.5938 71.6271 39.3849 72.3388 38.9673C73.0504 38.5497 73.581 37.9553 73.9304 37.1839C74.2798 36.4126 74.4545 35.4943 74.4545 34.429C74.4545 33.3722 74.282 32.4624 73.9368 31.6996C73.5916 30.9325 73.076 30.3445 72.3899 29.9354C71.7038 29.522 70.8494 29.3153 69.8267 29.3153H67.2955V39.5938ZM82.4318 41.2045C81.5455 41.2045 80.7678 40.9936 80.0987 40.5717C79.4339 40.1499 78.9141 39.5597 78.5391 38.8011C78.1683 38.0426 77.983 37.1562 77.983 36.142C77.983 35.1193 78.1683 34.2266 78.5391 33.4638C78.9141 32.701 79.4339 32.1087 80.0987 31.6868C80.7678 31.2649 81.5455 31.054 82.4318 31.054C83.3182 31.054 84.0938 31.2649 84.7585 31.6868C85.4276 32.1087 85.9474 32.701 86.3182 33.4638C86.6932 34.2266 86.8807 35.1193 86.8807 36.142C86.8807 37.1562 86.6932 38.0426 86.3182 38.8011C85.9474 39.5597 85.4276 40.1499 84.7585 40.5717C84.0938 40.9936 83.3182 41.2045 82.4318 41.2045ZM82.4318 39.8494C83.1051 39.8494 83.6591 39.6768 84.0938 39.3317C84.5284 38.9865 84.8501 38.5327 85.0589 37.9702C85.2678 37.4077 85.3722 36.7983 85.3722 36.142C85.3722 35.4858 85.2678 34.8743 85.0589 34.3075C84.8501 33.7408 84.5284 33.2827 84.0938 32.9332C83.6591 32.5838 83.1051 32.4091 82.4318 32.4091C81.7585 32.4091 81.2045 32.5838 80.7699 32.9332C80.3352 33.2827 80.0135 33.7408 79.8047 34.3075C79.5959 34.8743 79.4915 35.4858 79.4915 36.142C79.4915 36.7983 79.5959 37.4077 79.8047 37.9702C80.0135 38.5327 80.3352 38.9865 80.7699 39.3317C81.2045 39.6768 81.7585 39.8494 82.4318 39.8494ZM90.6919 27.9091V41H89.1834V27.9091H90.6919ZM97.418 44.8864C96.6893 44.8864 96.0629 44.7926 95.5387 44.6051C95.0146 44.4219 94.5778 44.179 94.2283 43.8764C93.8832 43.5781 93.6083 43.2585 93.4038 42.9176L94.6055 42.0739C94.7418 42.2528 94.9144 42.4574 95.1232 42.6875C95.332 42.9219 95.6175 43.1243 95.9798 43.2947C96.3462 43.4695 96.8256 43.5568 97.418 43.5568C98.2106 43.5568 98.8647 43.3651 99.3803 42.9815C99.896 42.598 100.154 41.9972 100.154 41.179V39.1847H100.026C99.9151 39.3636 99.7575 39.5852 99.5529 39.8494C99.3526 40.1094 99.0629 40.3416 98.6836 40.5462C98.3086 40.7464 97.8015 40.8466 97.1623 40.8466C96.3697 40.8466 95.658 40.6591 95.0273 40.2841C94.4009 39.9091 93.9045 39.3636 93.538 38.6477C93.1758 37.9318 92.9947 37.0625 92.9947 36.0398C92.9947 35.0341 93.1715 34.1584 93.5252 33.4126C93.8789 32.6626 94.3711 32.0831 95.0018 31.674C95.6325 31.2607 96.3612 31.054 97.1879 31.054C97.8271 31.054 98.3342 31.1605 98.7092 31.3736C99.0884 31.5824 99.3782 31.821 99.5785 32.0895C99.783 32.3537 99.9407 32.571 100.051 32.7415H100.205V31.1818H101.662V41.2812C101.662 42.125 101.471 42.8111 101.087 43.3395C100.708 43.8722 100.196 44.2621 99.5529 44.5092C98.9137 44.7607 98.2021 44.8864 97.418 44.8864ZM97.3668 39.4915C97.9719 39.4915 98.4833 39.353 98.9009 39.076C99.3185 38.799 99.636 38.4006 99.8533 37.8807C100.071 37.3608 100.179 36.7386 100.179 36.0142C100.179 35.3068 100.073 34.6825 99.8597 34.1413C99.6467 33.6001 99.3313 33.1761 98.9137 32.8693C98.4961 32.5625 97.9805 32.4091 97.3668 32.4091C96.7276 32.4091 96.195 32.571 95.7688 32.8949C95.3469 33.2187 95.0295 33.6534 94.8164 34.1989C94.6076 34.7443 94.5032 35.3494 94.5032 36.0142C94.5032 36.696 94.6097 37.299 94.8228 37.8232C95.0401 38.343 95.3597 38.7521 95.7816 39.0504C96.2077 39.3445 96.7362 39.4915 97.3668 39.4915ZM110.611 36.9858V31.1818H112.12V41H110.611V39.3381H110.509C110.279 39.8366 109.921 40.2607 109.435 40.6101C108.949 40.9553 108.336 41.1278 107.594 41.1278C106.98 41.1278 106.435 40.9936 105.958 40.7251C105.48 40.4524 105.105 40.0433 104.833 39.4979C104.56 38.9482 104.424 38.2557 104.424 37.4205V31.1818H105.932V37.3182C105.932 38.0341 106.132 38.6051 106.533 39.0312C106.938 39.4574 107.453 39.6705 108.08 39.6705C108.455 39.6705 108.836 39.5746 109.224 39.3828C109.616 39.1911 109.944 38.897 110.208 38.5007C110.477 38.1044 110.611 37.5994 110.611 36.9858ZM121.837 33.3807L120.482 33.7642C120.397 33.5384 120.271 33.3189 120.105 33.1058C119.943 32.8885 119.721 32.7095 119.44 32.5689C119.159 32.4283 118.799 32.358 118.36 32.358C117.759 32.358 117.258 32.4964 116.858 32.7734C116.461 33.0462 116.263 33.3935 116.263 33.8153C116.263 34.1903 116.4 34.4865 116.672 34.7038C116.945 34.9212 117.371 35.1023 117.951 35.2472L119.408 35.6051C120.286 35.8182 120.94 36.1442 121.371 36.5831C121.801 37.0178 122.016 37.5781 122.016 38.2642C122.016 38.8267 121.854 39.3295 121.53 39.7727C121.211 40.2159 120.763 40.5653 120.188 40.821C119.613 41.0767 118.944 41.2045 118.181 41.2045C117.18 41.2045 116.351 40.9872 115.694 40.5526C115.038 40.1179 114.623 39.483 114.448 38.6477L115.88 38.2898C116.016 38.8182 116.274 39.2145 116.653 39.4787C117.037 39.7429 117.537 39.875 118.155 39.875C118.858 39.875 119.417 39.7259 119.83 39.4276C120.248 39.125 120.456 38.7628 120.456 38.3409C120.456 38 120.337 37.7145 120.099 37.4844C119.86 37.25 119.493 37.0753 118.999 36.9602L117.363 36.5767C116.464 36.3636 115.803 36.0334 115.381 35.5859C114.964 35.1342 114.755 34.5696 114.755 33.892C114.755 33.3381 114.91 32.848 115.221 32.4219C115.537 31.9957 115.965 31.6612 116.506 31.4183C117.052 31.1754 117.67 31.054 118.36 31.054C119.331 31.054 120.094 31.267 120.648 31.6932C121.206 32.1193 121.603 32.6818 121.837 33.3807ZM125.795 35.0938V41H124.287V27.9091H125.795V32.7159H125.923C126.153 32.2088 126.499 31.8061 126.959 31.5078C127.423 31.2053 128.041 31.054 128.812 31.054C129.482 31.054 130.067 31.1882 130.57 31.4567C131.073 31.7209 131.463 32.1278 131.74 32.6776C132.021 33.223 132.162 33.9176 132.162 34.7614V41H130.653V34.8636C130.653 34.0838 130.451 33.4808 130.046 33.0547C129.646 32.6243 129.089 32.4091 128.378 32.4091C127.884 32.4091 127.44 32.5135 127.048 32.7223C126.661 32.9311 126.354 33.2358 126.128 33.6364C125.906 34.0369 125.795 34.5227 125.795 35.0938ZM134.922 41V31.1818H136.43V41H134.922ZM135.689 29.5455C135.395 29.5455 135.141 29.4453 134.928 29.245C134.719 29.0447 134.615 28.804 134.615 28.5227C134.615 28.2415 134.719 28.0007 134.928 27.8004C135.141 27.6001 135.395 27.5 135.689 27.5C135.983 27.5 136.234 27.6001 136.443 27.8004C136.656 28.0007 136.763 28.2415 136.763 28.5227C136.763 28.804 136.656 29.0447 136.443 29.245C136.234 29.4453 135.983 29.5455 135.689 29.5455ZM140.702 35.0938V41H139.193V31.1818H140.651V32.7159H140.778C141.009 32.2173 141.358 31.8168 141.827 31.5142C142.295 31.2074 142.901 31.054 143.642 31.054C144.307 31.054 144.888 31.1903 145.387 31.4631C145.886 31.7315 146.273 32.1406 146.55 32.6903C146.827 33.2358 146.966 33.9261 146.966 34.7614V41H145.457V34.8636C145.457 34.0923 145.257 33.4915 144.857 33.0611C144.456 32.6264 143.906 32.4091 143.207 32.4091C142.726 32.4091 142.295 32.5135 141.916 32.7223C141.541 32.9311 141.245 33.2358 141.028 33.6364C140.81 34.0369 140.702 34.5227 140.702 35.0938ZM152.612 41.2301C151.99 41.2301 151.425 41.1129 150.918 40.8786C150.411 40.6399 150.008 40.2969 149.71 39.8494C149.411 39.3977 149.262 38.8523 149.262 38.2131C149.262 37.6506 149.373 37.1946 149.595 36.8452C149.816 36.4915 150.112 36.2145 150.483 36.0142C150.854 35.8139 151.263 35.6648 151.71 35.5668C152.162 35.4645 152.616 35.3835 153.072 35.3239C153.669 35.2472 154.152 35.1896 154.523 35.1513C154.898 35.1087 155.171 35.0384 155.341 34.9403C155.516 34.8423 155.603 34.6719 155.603 34.429V34.3778C155.603 33.7472 155.431 33.2571 155.085 32.9077C154.744 32.5582 154.227 32.3835 153.532 32.3835C152.812 32.3835 152.247 32.5412 151.838 32.8565C151.429 33.1719 151.142 33.5085 150.975 33.8665L149.544 33.3551C149.799 32.7585 150.14 32.294 150.566 31.9616C150.997 31.625 151.465 31.3906 151.972 31.2585C152.484 31.1222 152.987 31.054 153.481 31.054C153.796 31.054 154.159 31.0923 154.568 31.169C154.981 31.2415 155.379 31.3928 155.763 31.6229C156.151 31.853 156.472 32.2003 156.728 32.6648C156.984 33.1293 157.112 33.7514 157.112 34.5312V41H155.603V39.6705H155.526C155.424 39.8835 155.254 40.1115 155.015 40.3544C154.776 40.5973 154.459 40.804 154.063 40.9744C153.666 41.1449 153.183 41.2301 152.612 41.2301ZM152.842 39.875C153.438 39.875 153.941 39.7578 154.35 39.5234C154.764 39.2891 155.075 38.9865 155.284 38.6158C155.497 38.245 155.603 37.8551 155.603 37.446V36.0653C155.539 36.142 155.399 36.2124 155.181 36.2763C154.968 36.3359 154.721 36.3892 154.44 36.4361C154.163 36.4787 153.892 36.517 153.628 36.5511C153.368 36.581 153.157 36.6065 152.995 36.6278C152.603 36.679 152.237 36.7621 151.896 36.8771C151.559 36.9879 151.286 37.1562 151.078 37.3821C150.873 37.6037 150.771 37.9062 150.771 38.2898C150.771 38.8139 150.965 39.2102 151.352 39.4787C151.744 39.7429 152.241 39.875 152.842 39.875ZM162.115 39.2102L162.013 39.9006C161.94 40.3864 161.83 40.9062 161.68 41.4602C161.536 42.0142 161.384 42.5362 161.227 43.0263C161.069 43.5163 160.939 43.9063 160.837 44.196H159.686C159.741 43.9233 159.814 43.5632 159.903 43.1158C159.993 42.6683 160.082 42.1676 160.172 41.6136C160.266 41.0639 160.342 40.5014 160.402 39.9261L160.479 39.2102H162.115ZM169.972 44.6818V31.1818H171.43V32.7415H171.609C171.72 32.571 171.873 32.3537 172.069 32.0895C172.269 31.821 172.555 31.5824 172.926 31.3736C173.301 31.1605 173.808 31.054 174.447 31.054C175.274 31.054 176.002 31.2607 176.633 31.674C177.264 32.0874 177.756 32.6733 178.11 33.4318C178.463 34.1903 178.64 35.0852 178.64 36.1165C178.64 37.1562 178.463 38.0575 178.11 38.8203C177.756 39.5788 177.266 40.1669 176.639 40.5845C176.013 40.9979 175.291 41.2045 174.472 41.2045C173.842 41.2045 173.337 41.1001 172.958 40.8913C172.578 40.6783 172.286 40.4375 172.082 40.169C171.877 39.8963 171.72 39.6705 171.609 39.4915H171.481V44.6818H169.972ZM171.455 36.0909C171.455 36.8324 171.564 37.4865 171.781 38.0533C171.999 38.6158 172.316 39.0568 172.734 39.3764C173.151 39.6918 173.663 39.8494 174.268 39.8494C174.899 39.8494 175.425 39.6832 175.847 39.3509C176.273 39.0142 176.593 38.5625 176.806 37.9957C177.023 37.4247 177.132 36.7898 177.132 36.0909C177.132 35.4006 177.025 34.7784 176.812 34.2244C176.603 33.6662 176.286 33.2251 175.86 32.9013C175.438 32.5732 174.907 32.4091 174.268 32.4091C173.654 32.4091 173.139 32.5646 172.721 32.8757C172.303 33.1825 171.988 33.6129 171.775 34.1669C171.562 34.7166 171.455 35.358 171.455 36.0909ZM180.941 41V31.1818H182.399V32.6648H182.501C182.68 32.179 183.004 31.7848 183.472 31.4822C183.941 31.1797 184.47 31.0284 185.058 31.0284C185.169 31.0284 185.307 31.0305 185.473 31.0348C185.639 31.0391 185.765 31.0455 185.85 31.054V32.5881C185.799 32.5753 185.682 32.5561 185.499 32.5305C185.32 32.5007 185.13 32.4858 184.93 32.4858C184.453 32.4858 184.026 32.5859 183.651 32.7862C183.281 32.9822 182.987 33.255 182.769 33.6044C182.556 33.9496 182.45 34.3437 182.45 34.7869V41H180.941ZM191.328 41.2045C190.442 41.2045 189.664 40.9936 188.995 40.5717C188.33 40.1499 187.811 39.5597 187.436 38.8011C187.065 38.0426 186.879 37.1562 186.879 36.142C186.879 35.1193 187.065 34.2266 187.436 33.4638C187.811 32.701 188.33 32.1087 188.995 31.6868C189.664 31.2649 190.442 31.054 191.328 31.054C192.215 31.054 192.99 31.2649 193.655 31.6868C194.324 32.1087 194.844 32.701 195.215 33.4638C195.59 34.2266 195.777 35.1193 195.777 36.142C195.777 37.1562 195.59 38.0426 195.215 38.8011C194.844 39.5597 194.324 40.1499 193.655 40.5717C192.99 40.9936 192.215 41.2045 191.328 41.2045ZM191.328 39.8494C192.002 39.8494 192.556 39.6768 192.99 39.3317C193.425 38.9865 193.747 38.5327 193.955 37.9702C194.164 37.4077 194.269 36.7983 194.269 36.142C194.269 35.4858 194.164 34.8743 193.955 34.3075C193.747 33.7408 193.425 33.2827 192.99 32.9332C192.556 32.5838 192.002 32.4091 191.328 32.4091C190.655 32.4091 190.101 32.5838 189.666 32.9332C189.232 33.2827 188.91 33.7408 188.701 34.3075C188.492 34.8743 188.388 35.4858 188.388 36.142C188.388 36.7983 188.492 37.4077 188.701 37.9702C188.91 38.5327 189.232 38.9865 189.666 39.3317C190.101 39.6768 190.655 39.8494 191.328 39.8494ZM201.787 41.2045C200.969 41.2045 200.247 40.9979 199.62 40.5845C198.994 40.1669 198.504 39.5788 198.15 38.8203C197.797 38.0575 197.62 37.1562 197.62 36.1165C197.62 35.0852 197.797 34.1903 198.15 33.4318C198.504 32.6733 198.996 32.0874 199.627 31.674C200.257 31.2607 200.986 31.054 201.813 31.054C202.452 31.054 202.957 31.1605 203.328 31.3736C203.703 31.5824 203.988 31.821 204.184 32.0895C204.385 32.3537 204.54 32.571 204.651 32.7415H204.779V27.9091H206.287V41H204.83V39.4915H204.651C204.54 39.6705 204.382 39.8963 204.178 40.169C203.973 40.4375 203.681 40.6783 203.302 40.8913C202.923 41.1001 202.418 41.2045 201.787 41.2045ZM201.992 39.8494C202.597 39.8494 203.108 39.6918 203.526 39.3764C203.944 39.0568 204.261 38.6158 204.478 38.0533C204.696 37.4865 204.804 36.8324 204.804 36.0909C204.804 35.358 204.698 34.7166 204.485 34.1669C204.272 33.6129 203.956 33.1825 203.539 32.8757C203.121 32.5646 202.605 32.4091 201.992 32.4091C201.353 32.4091 200.82 32.5732 200.394 32.9013C199.972 33.2251 199.654 33.6662 199.441 34.2244C199.233 34.7784 199.128 35.4006 199.128 36.0909C199.128 36.7898 199.235 37.4247 199.448 37.9957C199.665 38.5625 199.985 39.0142 200.407 39.3509C200.833 39.6832 201.361 39.8494 201.992 39.8494ZM215.447 36.9858V31.1818H216.956V41H215.447V39.3381H215.345C215.115 39.8366 214.757 40.2607 214.271 40.6101C213.785 40.9553 213.172 41.1278 212.43 41.1278C211.816 41.1278 211.271 40.9936 210.794 40.7251C210.316 40.4524 209.941 40.0433 209.669 39.4979C209.396 38.9482 209.26 38.2557 209.26 37.4205V31.1818H210.768V37.3182C210.768 38.0341 210.968 38.6051 211.369 39.0312C211.774 39.4574 212.289 39.6705 212.916 39.6705C213.291 39.6705 213.672 39.5746 214.06 39.3828C214.452 39.1911 214.78 38.897 215.044 38.5007C215.313 38.1044 215.447 37.5994 215.447 36.9858ZM223.707 41.2045C222.787 41.2045 221.994 40.9872 221.329 40.5526C220.665 40.1179 220.153 39.5192 219.795 38.7564C219.437 37.9936 219.258 37.1222 219.258 36.142C219.258 35.1449 219.442 34.2649 219.808 33.5021C220.179 32.7351 220.694 32.1364 221.355 31.706C222.02 31.2713 222.795 31.054 223.682 31.054C224.372 31.054 224.994 31.1818 225.548 31.4375C226.102 31.6932 226.556 32.0511 226.91 32.5114C227.263 32.9716 227.483 33.5085 227.568 34.1222H226.059C225.944 33.6747 225.689 33.2784 225.292 32.9332C224.9 32.5838 224.372 32.4091 223.707 32.4091C223.119 32.4091 222.604 32.5625 222.16 32.8693C221.721 33.1719 221.378 33.6001 221.131 34.1541C220.888 34.7038 220.767 35.3494 220.767 36.0909C220.767 36.8494 220.886 37.5099 221.125 38.0724C221.368 38.6349 221.709 39.0717 222.148 39.3828C222.591 39.6939 223.111 39.8494 223.707 39.8494C224.099 39.8494 224.455 39.7812 224.775 39.6449C225.094 39.5085 225.365 39.3125 225.586 39.0568C225.808 38.8011 225.966 38.4943 226.059 38.1364H227.568C227.483 38.7159 227.272 39.2379 226.935 39.7024C226.603 40.1626 226.162 40.5291 225.612 40.8018C225.067 41.0703 224.432 41.2045 223.707 41.2045ZM234.043 31.1818V32.4602H228.955V31.1818H234.043ZM230.438 28.8295H231.947V38.1875C231.947 38.6136 232.008 38.9332 232.132 39.1463C232.26 39.3551 232.422 39.4957 232.618 39.5682C232.818 39.6364 233.029 39.6705 233.251 39.6705C233.417 39.6705 233.553 39.6619 233.66 39.6449C233.766 39.6236 233.851 39.6065 233.915 39.5938L234.222 40.9489C234.12 40.9872 233.977 41.0256 233.794 41.0639C233.611 41.1065 233.378 41.1278 233.097 41.1278C232.671 41.1278 232.253 41.0362 231.844 40.853C231.439 40.6697 231.103 40.3906 230.834 40.0156C230.57 39.6406 230.438 39.1676 230.438 38.5966V28.8295ZM240.195 41.2045C239.309 41.2045 238.531 40.9936 237.862 40.5717C237.198 40.1499 236.678 39.5597 236.303 38.8011C235.932 38.0426 235.747 37.1562 235.747 36.142C235.747 35.1193 235.932 34.2266 236.303 33.4638C236.678 32.701 237.198 32.1087 237.862 31.6868C238.531 31.2649 239.309 31.054 240.195 31.054C241.082 31.054 241.857 31.2649 242.522 31.6868C243.191 32.1087 243.711 32.701 244.082 33.4638C244.457 34.2266 244.644 35.1193 244.644 36.142C244.644 37.1562 244.457 38.0426 244.082 38.8011C243.711 39.5597 243.191 40.1499 242.522 40.5717C241.857 40.9936 241.082 41.2045 240.195 41.2045ZM240.195 39.8494C240.869 39.8494 241.423 39.6768 241.857 39.3317C242.292 38.9865 242.614 38.5327 242.823 37.9702C243.031 37.4077 243.136 36.7983 243.136 36.142C243.136 35.4858 243.031 34.8743 242.823 34.3075C242.614 33.7408 242.292 33.2827 241.857 32.9332C241.423 32.5838 240.869 32.4091 240.195 32.4091C239.522 32.4091 238.968 32.5838 238.534 32.9332C238.099 33.2827 237.777 33.7408 237.568 34.3075C237.36 34.8743 237.255 35.4858 237.255 36.142C237.255 36.7983 237.36 37.4077 237.568 37.9702C237.777 38.5327 238.099 38.9865 238.534 39.3317C238.968 39.6768 239.522 39.8494 240.195 39.8494ZM246.947 41V31.1818H248.404V32.6648H248.507C248.686 32.179 249.01 31.7848 249.478 31.4822C249.947 31.1797 250.475 31.0284 251.064 31.0284C251.174 31.0284 251.313 31.0305 251.479 31.0348C251.645 31.0391 251.771 31.0455 251.856 31.054V32.5881C251.805 32.5753 251.688 32.5561 251.505 32.5305C251.326 32.5007 251.136 32.4858 250.936 32.4858C250.458 32.4858 250.032 32.5859 249.657 32.7862C249.287 32.9822 248.993 33.255 248.775 33.6044C248.562 33.9496 248.456 34.3437 248.456 34.7869V41H246.947ZM256.534 41.2301C255.911 41.2301 255.347 41.1129 254.84 40.8786C254.333 40.6399 253.93 40.2969 253.632 39.8494C253.333 39.3977 253.184 38.8523 253.184 38.2131C253.184 37.6506 253.295 37.1946 253.517 36.8452C253.738 36.4915 254.034 36.2145 254.405 36.0142C254.776 35.8139 255.185 35.6648 255.632 35.5668C256.084 35.4645 256.538 35.3835 256.994 35.3239C257.59 35.2472 258.074 35.1896 258.445 35.1513C258.82 35.1087 259.093 35.0384 259.263 34.9403C259.438 34.8423 259.525 34.6719 259.525 34.429V34.3778C259.525 33.7472 259.352 33.2571 259.007 32.9077C258.666 32.5582 258.149 32.3835 257.454 32.3835C256.734 32.3835 256.169 32.5412 255.76 32.8565C255.351 33.1719 255.063 33.5085 254.897 33.8665L253.465 33.3551C253.721 32.7585 254.062 32.294 254.488 31.9616C254.919 31.625 255.387 31.3906 255.894 31.2585C256.406 31.1222 256.909 31.054 257.403 31.054C257.718 31.054 258.08 31.0923 258.49 31.169C258.903 31.2415 259.301 31.3928 259.685 31.6229C260.073 31.853 260.394 32.2003 260.65 32.6648C260.906 33.1293 261.034 33.7514 261.034 34.5312V41H259.525V39.6705H259.448C259.346 39.8835 259.176 40.1115 258.937 40.3544C258.698 40.5973 258.381 40.804 257.985 40.9744C257.588 41.1449 257.105 41.2301 256.534 41.2301ZM256.764 39.875C257.36 39.875 257.863 39.7578 258.272 39.5234C258.686 39.2891 258.997 38.9865 259.205 38.6158C259.419 38.245 259.525 37.8551 259.525 37.446V36.0653C259.461 36.142 259.32 36.2124 259.103 36.2763C258.89 36.3359 258.643 36.3892 258.362 36.4361C258.085 36.4787 257.814 36.517 257.55 36.5511C257.29 36.581 257.079 36.6065 256.917 36.6278C256.525 36.679 256.159 36.7621 255.818 36.8771C255.481 36.9879 255.208 37.1562 254.999 37.3821C254.795 37.6037 254.693 37.9062 254.693 38.2898C254.693 38.8139 254.887 39.2102 255.274 39.4787C255.666 39.7429 256.163 39.875 256.764 39.875ZM5.08807 63.2045C4.26989 63.2045 3.54759 62.9979 2.92116 62.5845C2.29474 62.1669 1.80469 61.5788 1.45099 60.8203C1.0973 60.0575 0.920455 59.1562 0.920455 58.1165C0.920455 57.0852 1.0973 56.1903 1.45099 55.4318C1.80469 54.6733 2.29688 54.0874 2.92756 53.674C3.55824 53.2607 4.28693 53.054 5.11364 53.054C5.75284 53.054 6.25781 53.1605 6.62855 53.3736C7.00355 53.5824 7.28906 53.821 7.48509 54.0895C7.68537 54.3537 7.84091 54.571 7.9517 54.7415H8.07955V49.9091H9.58807V63H8.13068V61.4915H7.9517C7.84091 61.6705 7.68324 61.8963 7.47869 62.169C7.27415 62.4375 6.98224 62.6783 6.60298 62.8913C6.22372 63.1001 5.71875 63.2045 5.08807 63.2045ZM5.29261 61.8494C5.89773 61.8494 6.40909 61.6918 6.8267 61.3764C7.24432 61.0568 7.56179 60.6158 7.77912 60.0533C7.99645 59.4865 8.10511 58.8324 8.10511 58.0909C8.10511 57.358 7.99858 56.7166 7.78551 56.1669C7.57244 55.6129 7.2571 55.1825 6.83949 54.8757C6.42188 54.5646 5.90625 54.4091 5.29261 54.4091C4.65341 54.4091 4.12074 54.5732 3.6946 54.9013C3.27273 55.2251 2.95526 55.6662 2.74219 56.2244C2.53338 56.7784 2.42898 57.4006 2.42898 58.0909C2.42898 58.7898 2.53551 59.4247 2.74858 59.9957C2.96591 60.5625 3.28551 61.0142 3.70739 61.3509C4.13352 61.6832 4.66193 61.8494 5.29261 61.8494ZM16.6768 63.2045C15.7308 63.2045 14.9148 62.9957 14.2287 62.5781C13.5469 62.1562 13.0206 61.5682 12.6499 60.8139C12.2834 60.0554 12.1001 59.1733 12.1001 58.1676C12.1001 57.1619 12.2834 56.2756 12.6499 55.5085C13.0206 54.7372 13.5362 54.1364 14.1967 53.706C14.8615 53.2713 15.6371 53.054 16.5234 53.054C17.0348 53.054 17.5398 53.1392 18.0384 53.3097C18.5369 53.4801 18.9908 53.7571 19.3999 54.1406C19.8089 54.5199 20.1349 55.0227 20.3778 55.6491C20.6207 56.2756 20.7422 57.0469 20.7422 57.9631V58.6023H13.174V57.2983H19.2081C19.2081 56.7443 19.0973 56.25 18.8757 55.8153C18.6584 55.3807 18.3473 55.0376 17.9425 54.7862C17.5419 54.5348 17.0689 54.4091 16.5234 54.4091C15.9226 54.4091 15.4027 54.5582 14.9638 54.8565C14.5291 55.1506 14.1946 55.5341 13.9602 56.0071C13.7259 56.4801 13.6087 56.9872 13.6087 57.5284V58.3977C13.6087 59.1392 13.7365 59.7678 13.9922 60.2834C14.2521 60.7947 14.6122 61.1847 15.0724 61.4531C15.5327 61.7173 16.0675 61.8494 16.6768 61.8494C17.0732 61.8494 17.4311 61.794 17.7507 61.6832C18.0746 61.5682 18.3537 61.3977 18.5881 61.1719C18.8224 60.9418 19.0036 60.6562 19.1314 60.3153L20.5888 60.7244C20.4354 61.2188 20.1776 61.6534 19.8153 62.0284C19.4531 62.3991 19.0057 62.6889 18.473 62.8977C17.9403 63.1023 17.3416 63.2045 16.6768 63.2045ZM32.0881 63.2045C31.1676 63.2045 30.375 62.9872 29.7102 62.5526C29.0455 62.1179 28.5341 61.5192 28.1761 60.7564C27.8182 59.9936 27.6392 59.1222 27.6392 58.142C27.6392 57.1449 27.8224 56.2649 28.1889 55.5021C28.5597 54.7351 29.0753 54.1364 29.7358 53.706C30.4006 53.2713 31.1761 53.054 32.0625 53.054C32.7528 53.054 33.375 53.1818 33.929 53.4375C34.483 53.6932 34.9368 54.0511 35.2905 54.5114C35.6442 54.9716 35.8636 55.5085 35.9489 56.1222H34.4403C34.3253 55.6747 34.0696 55.2784 33.6733 54.9332C33.2813 54.5838 32.7528 54.4091 32.0881 54.4091C31.5 54.4091 30.9844 54.5625 30.5412 54.8693C30.1023 55.1719 29.7592 55.6001 29.5121 56.1541C29.2692 56.7038 29.1477 57.3494 29.1477 58.0909C29.1477 58.8494 29.267 59.5099 29.5057 60.0724C29.7486 60.6349 30.0895 61.0717 30.5284 61.3828C30.9716 61.6939 31.4915 61.8494 32.0881 61.8494C32.4801 61.8494 32.8359 61.7812 33.1555 61.6449C33.4751 61.5085 33.7457 61.3125 33.9673 61.0568C34.1889 60.8011 34.3466 60.4943 34.4403 60.1364H35.9489C35.8636 60.7159 35.6527 61.2379 35.3161 61.7024C34.9837 62.1626 34.5426 62.5291 33.9929 62.8018C33.4474 63.0703 32.8125 63.2045 32.0881 63.2045ZM42.1428 63.2045C41.2564 63.2045 40.4787 62.9936 39.8097 62.5717C39.1449 62.1499 38.625 61.5597 38.25 60.8011C37.8793 60.0426 37.6939 59.1562 37.6939 58.142C37.6939 57.1193 37.8793 56.2266 38.25 55.4638C38.625 54.701 39.1449 54.1087 39.8097 53.6868C40.4787 53.2649 41.2564 53.054 42.1428 53.054C43.0291 53.054 43.8047 53.2649 44.4695 53.6868C45.1385 54.1087 45.6584 54.701 46.0291 55.4638C46.4041 56.2266 46.5916 57.1193 46.5916 58.142C46.5916 59.1562 46.4041 60.0426 46.0291 60.8011C45.6584 61.5597 45.1385 62.1499 44.4695 62.5717C43.8047 62.9936 43.0291 63.2045 42.1428 63.2045ZM42.1428 61.8494C42.8161 61.8494 43.37 61.6768 43.8047 61.3317C44.2393 60.9865 44.5611 60.5327 44.7699 59.9702C44.9787 59.4077 45.0831 58.7983 45.0831 58.142C45.0831 57.4858 44.9787 56.8743 44.7699 56.3075C44.5611 55.7408 44.2393 55.2827 43.8047 54.9332C43.37 54.5838 42.8161 54.4091 42.1428 54.4091C41.4695 54.4091 40.9155 54.5838 40.4808 54.9332C40.0462 55.2827 39.7244 55.7408 39.5156 56.3075C39.3068 56.8743 39.2024 57.4858 39.2024 58.142C39.2024 58.7983 39.3068 59.4077 39.5156 59.9702C39.7244 60.5327 40.0462 60.9865 40.4808 61.3317C40.9155 61.6768 41.4695 61.8494 42.1428 61.8494ZM50.4029 57.0938V63H48.8944V53.1818H50.3517V54.7159H50.4796C50.7097 54.2173 51.0591 53.8168 51.5279 53.5142C51.9966 53.2074 52.6017 53.054 53.3432 53.054C54.008 53.054 54.5897 53.1903 55.0882 53.4631C55.5868 53.7315 55.9746 54.1406 56.2516 54.6903C56.5286 55.2358 56.6671 55.9261 56.6671 56.7614V63H55.1586V56.8636C55.1586 56.0923 54.9583 55.4915 54.5577 55.0611C54.1571 54.6264 53.6074 54.4091 52.9086 54.4091C52.427 54.4091 51.9966 54.5135 51.6174 54.7223C51.2424 54.9311 50.9462 55.2358 50.7289 55.6364C50.5115 56.0369 50.4029 56.5227 50.4029 57.0938ZM63.6935 53.1818V54.4602H58.6055V53.1818H63.6935ZM60.0884 50.8295H61.5969V60.1875C61.5969 60.6136 61.6587 60.9332 61.7823 61.1463C61.9102 61.3551 62.0721 61.4957 62.2681 61.5682C62.4684 61.6364 62.6793 61.6705 62.9009 61.6705C63.0671 61.6705 63.2035 61.6619 63.31 61.6449C63.4165 61.6236 63.5018 61.6065 63.5657 61.5938L63.8725 62.9489C63.7702 62.9872 63.6275 63.0256 63.4442 63.0639C63.261 63.1065 63.0288 63.1278 62.7475 63.1278C62.3214 63.1278 61.9038 63.0362 61.4947 62.853C61.0898 62.6697 60.7532 62.3906 60.4847 62.0156C60.2205 61.6406 60.0884 61.1676 60.0884 60.5966V50.8295ZM69.9737 63.2045C69.0277 63.2045 68.2116 62.9957 67.5256 62.5781C66.8438 62.1562 66.3175 61.5682 65.9467 60.8139C65.5803 60.0554 65.397 59.1733 65.397 58.1676C65.397 57.1619 65.5803 56.2756 65.9467 55.5085C66.3175 54.7372 66.8331 54.1364 67.4936 53.706C68.1584 53.2713 68.9339 53.054 69.8203 53.054C70.3317 53.054 70.8366 53.1392 71.3352 53.3097C71.8338 53.4801 72.2876 53.7571 72.6967 54.1406C73.1058 54.5199 73.4318 55.0227 73.6747 55.6491C73.9176 56.2756 74.0391 57.0469 74.0391 57.9631V58.6023H66.4709V57.2983H72.505C72.505 56.7443 72.3942 56.25 72.1726 55.8153C71.9553 55.3807 71.6442 55.0376 71.2393 54.7862C70.8388 54.5348 70.3658 54.4091 69.8203 54.4091C69.2195 54.4091 68.6996 54.5582 68.2607 54.8565C67.826 55.1506 67.4915 55.5341 67.2571 56.0071C67.0227 56.4801 66.9055 56.9872 66.9055 57.5284V58.3977C66.9055 59.1392 67.0334 59.7678 67.2891 60.2834C67.549 60.7947 67.9091 61.1847 68.3693 61.4531C68.8295 61.7173 69.3643 61.8494 69.9737 61.8494C70.37 61.8494 70.728 61.794 71.0476 61.6832C71.3714 61.5682 71.6506 61.3977 71.8849 61.1719C72.1193 60.9418 72.3004 60.6562 72.4283 60.3153L73.8857 60.7244C73.7322 61.2188 73.4744 61.6534 73.1122 62.0284C72.75 62.3991 72.3026 62.6889 71.7699 62.8977C71.2372 63.1023 70.6385 63.2045 69.9737 63.2045ZM77.8423 57.0938V63H76.3338V53.1818H77.7912V54.7159H77.919C78.1491 54.2173 78.4986 53.8168 78.9673 53.5142C79.4361 53.2074 80.0412 53.054 80.7827 53.054C81.4474 53.054 82.0291 53.1903 82.5277 53.4631C83.0263 53.7315 83.4141 54.1406 83.6911 54.6903C83.968 55.2358 84.1065 55.9261 84.1065 56.7614V63H82.598V56.8636C82.598 56.0923 82.3977 55.4915 81.9972 55.0611C81.5966 54.6264 81.0469 54.4091 80.348 54.4091C79.8665 54.4091 79.4361 54.5135 79.0568 54.7223C78.6818 54.9311 78.3857 55.2358 78.1683 55.6364C77.951 56.0369 77.8423 56.5227 77.8423 57.0938ZM86.8631 63V53.1818H88.3716V63H86.8631ZM87.6301 51.5455C87.3361 51.5455 87.0826 51.4453 86.8695 51.245C86.6607 51.0447 86.5563 50.804 86.5563 50.5227C86.5563 50.2415 86.6607 50.0007 86.8695 49.8004C87.0826 49.6001 87.3361 49.5 87.6301 49.5C87.9242 49.5 88.1756 49.6001 88.3844 49.8004C88.5975 50.0007 88.704 50.2415 88.704 50.5227C88.704 50.804 88.5975 51.0447 88.3844 51.245C88.1756 51.4453 87.9242 51.5455 87.6301 51.5455ZM94.842 63.2045C94.0238 63.2045 93.3015 62.9979 92.6751 62.5845C92.0487 62.1669 91.5586 61.5788 91.2049 60.8203C90.8512 60.0575 90.6744 59.1562 90.6744 58.1165C90.6744 57.0852 90.8512 56.1903 91.2049 55.4318C91.5586 54.6733 92.0508 54.0874 92.6815 53.674C93.3121 53.2607 94.0408 53.054 94.8675 53.054C95.5067 53.054 96.0117 53.1605 96.3825 53.3736C96.7575 53.5824 97.043 53.821 97.239 54.0895C97.4393 54.3537 97.5948 54.571 97.7056 54.7415H97.8335V49.9091H99.342V63H97.8846V61.4915H97.7056C97.5948 61.6705 97.4371 61.8963 97.2326 62.169C97.0281 62.4375 96.7362 62.6783 96.3569 62.8913C95.9776 63.1001 95.4727 63.2045 94.842 63.2045ZM95.0465 61.8494C95.6516 61.8494 96.163 61.6918 96.5806 61.3764C96.9982 61.0568 97.3157 60.6158 97.533 60.0533C97.7504 59.4865 97.859 58.8324 97.859 58.0909C97.859 57.358 97.7525 56.7166 97.5394 56.1669C97.3263 55.6129 97.011 55.1825 96.5934 54.8757C96.1758 54.5646 95.6602 54.4091 95.0465 54.4091C94.4073 54.4091 93.8746 54.5732 93.4485 54.9013C93.0266 55.2251 92.7092 55.6662 92.4961 56.2244C92.2873 56.7784 92.1829 57.4006 92.1829 58.0909C92.1829 58.7898 92.2894 59.4247 92.5025 59.9957C92.7198 60.5625 93.0394 61.0142 93.4613 61.3509C93.8874 61.6832 94.4158 61.8494 95.0465 61.8494ZM106.303 63.2045C105.417 63.2045 104.639 62.9936 103.97 62.5717C103.305 62.1499 102.785 61.5597 102.41 60.8011C102.039 60.0426 101.854 59.1562 101.854 58.142C101.854 57.1193 102.039 56.2266 102.41 55.4638C102.785 54.701 103.305 54.1087 103.97 53.6868C104.639 53.2649 105.417 53.054 106.303 53.054C107.189 53.054 107.965 53.2649 108.63 53.6868C109.299 54.1087 109.819 54.701 110.189 55.4638C110.564 56.2266 110.752 57.1193 110.752 58.142C110.752 59.1562 110.564 60.0426 110.189 60.8011C109.819 61.5597 109.299 62.1499 108.63 62.5717C107.965 62.9936 107.189 63.2045 106.303 63.2045ZM106.303 61.8494C106.976 61.8494 107.53 61.6768 107.965 61.3317C108.4 60.9865 108.721 60.5327 108.93 59.9702C109.139 59.4077 109.243 58.7983 109.243 58.142C109.243 57.4858 109.139 56.8743 108.93 56.3075C108.721 55.7408 108.4 55.2827 107.965 54.9332C107.53 54.5838 106.976 54.4091 106.303 54.4091C105.63 54.4091 105.076 54.5838 104.641 54.9332C104.206 55.2827 103.885 55.7408 103.676 56.3075C103.467 56.8743 103.363 57.4858 103.363 58.142C103.363 58.7983 103.467 59.4077 103.676 59.9702C103.885 60.5327 104.206 60.9865 104.641 61.3317C105.076 61.6768 105.63 61.8494 106.303 61.8494ZM120.009 55.3807L118.654 55.7642C118.569 55.5384 118.443 55.3189 118.277 55.1058C118.115 54.8885 117.893 54.7095 117.612 54.5689C117.331 54.4283 116.971 54.358 116.532 54.358C115.931 54.358 115.43 54.4964 115.03 54.7734C114.633 55.0462 114.435 55.3935 114.435 55.8153C114.435 56.1903 114.572 56.4865 114.844 56.7038C115.117 56.9212 115.543 57.1023 116.123 57.2472L117.58 57.6051C118.458 57.8182 119.112 58.1442 119.542 58.5831C119.973 59.0178 120.188 59.5781 120.188 60.2642C120.188 60.8267 120.026 61.3295 119.702 61.7727C119.383 62.2159 118.935 62.5653 118.36 62.821C117.785 63.0767 117.116 63.2045 116.353 63.2045C115.351 63.2045 114.523 62.9872 113.866 62.5526C113.21 62.1179 112.795 61.483 112.62 60.6477L114.052 60.2898C114.188 60.8182 114.446 61.2145 114.825 61.4787C115.209 61.7429 115.709 61.875 116.327 61.875C117.03 61.875 117.589 61.7259 118.002 61.4276C118.42 61.125 118.628 60.7628 118.628 60.3409C118.628 60 118.509 59.7145 118.27 59.4844C118.032 59.25 117.665 59.0753 117.171 58.9602L115.535 58.5767C114.635 58.3636 113.975 58.0334 113.553 57.5859C113.135 57.1342 112.927 56.5696 112.927 55.892C112.927 55.3381 113.082 54.848 113.393 54.4219C113.709 53.9957 114.137 53.6612 114.678 53.4183C115.224 53.1754 115.841 53.054 116.532 53.054C117.503 53.054 118.266 53.267 118.82 53.6932C119.378 54.1193 119.775 54.6818 120.009 55.3807Z" fill="white"/>
<path d="M1.41477 12H0.306818L3.51136 3.27273H4.60227L7.80682 12H6.69886L4.09091 4.65341H4.02273L1.41477 12ZM1.82386 8.59091H6.28977V9.52841H1.82386V8.59091ZM10.6062 12V3.27273H13.5551C14.2369 3.27273 14.7965 3.3892 15.234 3.62216C15.6715 3.85227 15.9954 4.16903 16.2056 4.57244C16.4159 4.97585 16.521 5.43466 16.521 5.94886C16.521 6.46307 16.4159 6.91903 16.2056 7.31676C15.9954 7.71449 15.673 8.02699 15.2383 8.25426C14.8036 8.47869 14.2482 8.59091 13.5721 8.59091H11.1857V7.63636H13.538C14.0039 7.63636 14.3789 7.56818 14.663 7.43182C14.9499 7.29545 15.1573 7.10227 15.2852 6.85227C15.4159 6.59943 15.4812 6.2983 15.4812 5.94886C15.4812 5.59943 15.4159 5.29403 15.2852 5.03267C15.1545 4.77131 14.9457 4.5696 14.6588 4.42756C14.3718 4.28267 13.9926 4.21023 13.521 4.21023H11.663V12H10.6062ZM14.7141 8.07955L16.8619 12H15.6346L13.521 8.07955H14.7141ZM19.2447 4.21023V3.27273H25.7902V4.21023H23.0458V12H21.989V4.21023H19.2447ZM29.918 3.27273V12H28.8612V3.27273H29.918ZM38.2497 5.45455C38.1986 5.02273 37.9912 4.6875 37.6275 4.44886C37.2639 4.21023 36.8179 4.09091 36.2895 4.09091C35.9031 4.09091 35.565 4.15341 35.2753 4.27841C34.9883 4.40341 34.7639 4.57528 34.602 4.79403C34.4429 5.01278 34.3633 5.26136 34.3633 5.53977C34.3633 5.77273 34.4187 5.97301 34.5295 6.14062C34.6432 6.3054 34.7881 6.44318 34.9642 6.55398C35.1403 6.66193 35.325 6.75142 35.5182 6.82244C35.7114 6.89062 35.8889 6.94602 36.0508 6.98864L36.9372 7.22727C37.1645 7.28693 37.4173 7.36932 37.6957 7.47443C37.977 7.57955 38.2454 7.72301 38.5011 7.90483C38.7596 8.08381 38.9727 8.31392 39.1403 8.59517C39.3079 8.87642 39.3917 9.22159 39.3917 9.63068C39.3917 10.1023 39.2682 10.5284 39.021 10.9091C38.7767 11.2898 38.4187 11.5923 37.9471 11.8168C37.4784 12.0412 36.9088 12.1534 36.2383 12.1534C35.6133 12.1534 35.0721 12.0526 34.6148 11.8509C34.1602 11.6491 33.8023 11.3679 33.5409 11.0071C33.2824 10.6463 33.1361 10.2273 33.102 9.75H34.1929C34.2213 10.0795 34.3321 10.3523 34.5253 10.5682C34.7213 10.7812 34.9685 10.9403 35.2667 11.0455C35.5679 11.1477 35.8917 11.1989 36.2383 11.1989C36.6417 11.1989 37.004 11.1335 37.325 11.0028C37.646 10.8693 37.9003 10.6847 38.0878 10.4489C38.2753 10.2102 38.369 9.93182 38.369 9.61364C38.369 9.32386 38.2881 9.08807 38.1261 8.90625C37.9642 8.72443 37.7511 8.5767 37.4869 8.46307C37.2227 8.34943 36.9372 8.25 36.6304 8.16477L35.5565 7.85795C34.8747 7.66193 34.3349 7.3821 33.9372 7.01847C33.5395 6.65483 33.3406 6.17898 33.3406 5.59091C33.3406 5.10227 33.4727 4.67614 33.7369 4.3125C34.004 3.94602 34.3619 3.66193 34.8108 3.46023C35.2625 3.25568 35.7667 3.15341 36.3236 3.15341C36.8861 3.15341 37.3861 3.25426 37.8236 3.45597C38.2611 3.65483 38.6077 3.92756 38.8633 4.27415C39.1219 4.62074 39.2582 5.0142 39.2724 5.45455H38.2497ZM42.092 4.21023V3.27273H48.6375V4.21023H45.8932V12H44.8364V4.21023H42.092ZM51.047 12H49.939L53.1436 3.27273H54.2345L57.439 12H56.3311L53.7231 4.65341H53.6549L51.047 12ZM51.4561 8.59091H55.922V9.52841H51.4561V8.59091Z" fill="#AAAAAA"/>
</svg>
